<?xml version="1.0" encoding="UTF-8" standalone="no"?>
<!DOCTYPE svg PUBLIC "-//W3C//DTD SVG 1.1//EN" "http://www.w3.org/Graphics/SVG/1.1/DTD/svg11.dtd">
<svg width="100%" height="100%" viewBox="0 0 384 254" version="1.1" xmlns="http://www.w3.org/2000/svg" xmlns:xlink="http://www.w3.org/1999/xlink" xml:space="preserve" xmlns:serif="http://www.serif.com/" style="fill-rule:evenodd;clip-rule:evenodd;">
    <g>
        <clipPath id="_clip1">
            <path d="M384,12L384,242C384,248.623 378.623,254 372,254L12,254C5.377,254 0,248.623 0,242L0,12C0,5.377 5.377,0 12,0L372,0C378.623,0 384,5.377 384,12Z"/>
        </clipPath>
        <g clip-path="url(#_clip1)">
            <rect x="0" y="0" width="384" height="254" style="fill:rgb(250,250,250);fill-rule:nonzero;"/>
            <g transform="matrix(1,0,0,1,-5.676803,8.660327)">
                <path d="M143,166L38,166C34.708,166 32,168.708 32,172L32,205C32,208.292 34.708,211 38,211L143,211C146.292,211 149,208.292 149,205L149,172C149,168.708 146.292,166 143,166" style="fill:rgb(51,51,51);fill-rule:nonzero;"/>
                <path d="M143,166C146.292,166 149,168.708 149,172L149,205C149,208.292 146.292,211 143,211L38,211C34.708,211 32,208.292 32,205L32,172C32,168.708 34.708,166 38,166L143,166ZM143,168L38,168C35.806,168 34,169.806 34,172L34,205C34,207.194 35.806,209 38,209L143,209C145.194,209 147,207.194 147,205L147,172C147,169.806 145.194,168 143,168Z" style="fill:rgb(51,51,51);"/>
            </g>
            <rect x="24" y="44" width="103" height="45" style="fill:rgb(51,51,51);fill-rule:nonzero;"/>
            <path d="M43.242,73L43.242,60.4L51.522,60.4L51.522,62.362L45.672,62.362L45.672,65.656L50.982,65.656L50.982,67.546L45.672,67.546L45.672,71.038L51.522,71.038L51.522,73L43.242,73ZM52.836,73L56.094,68.464L52.836,63.928L55.464,63.928L57.642,67.042L59.82,63.928L62.43,63.928L59.172,68.464L62.43,73L59.82,73L57.642,69.868L55.464,73L52.836,73ZM63.966,76.96L63.966,63.928L66.126,63.928L66.396,65.188C66.588,64.924 66.816,64.684 67.079,64.468C67.344,64.24 67.656,64.06 68.016,63.928C68.387,63.784 68.819,63.712 69.311,63.712C70.163,63.712 70.913,63.922 71.561,64.342C72.209,64.762 72.719,65.332 73.091,66.052C73.476,66.76 73.668,67.57 73.668,68.482C73.668,69.394 73.476,70.21 73.091,70.93C72.73,71.613 72.197,72.191 71.544,72.604C70.896,73.012 70.158,73.216 69.329,73.216C68.658,73.216 68.076,73.096 67.584,72.856C67.113,72.611 66.706,72.26 66.395,71.83L66.395,76.96L63.966,76.96ZM68.754,71.092C69.234,71.092 69.654,70.984 70.014,70.768C70.385,70.552 70.673,70.246 70.878,69.85C71.081,69.454 71.183,68.998 71.183,68.482C71.183,67.966 71.081,67.51 70.877,67.114C70.688,66.724 70.387,66.398 70.013,66.178C69.653,65.95 69.233,65.836 68.753,65.836C67.866,65.823 67.043,66.311 66.629,67.096C66.425,67.492 66.323,67.948 66.323,68.464C66.323,68.98 66.425,69.442 66.629,69.85C66.845,70.246 67.133,70.552 67.493,70.768C67.866,70.984 68.286,71.092 68.753,71.092M75.76,73L75.76,60.04L78.19,60.04L78.19,73L75.76,73ZM84.843,73.216C83.979,73.216 83.199,73.018 82.503,72.622C81.821,72.216 81.256,71.639 80.865,70.948C80.469,70.228 80.271,69.406 80.271,68.482C80.271,67.534 80.469,66.706 80.865,65.998C81.273,65.278 81.825,64.72 82.521,64.324C83.217,63.916 83.997,63.712 84.861,63.712C85.737,63.712 86.517,63.916 87.201,64.324C87.894,64.717 88.461,65.297 88.839,65.998C89.247,66.706 89.451,67.528 89.451,68.464C89.451,69.4 89.247,70.228 88.839,70.948C88.454,71.644 87.888,72.222 87.201,72.622C86.505,73.018 85.719,73.216 84.843,73.216M84.843,71.11C85.251,71.11 85.611,71.014 85.923,70.822C86.247,70.63 86.499,70.336 86.679,69.94C86.871,69.544 86.967,69.052 86.967,68.464C86.967,67.876 86.871,67.39 86.679,67.006C86.499,66.61 86.247,66.316 85.923,66.124C85.607,65.919 85.237,65.813 84.861,65.818C84.477,65.818 84.123,65.92 83.799,66.124C83.475,66.316 83.217,66.61 83.025,67.006C82.845,67.39 82.755,67.876 82.755,68.464C82.755,69.052 82.845,69.544 83.025,69.94C83.217,70.336 83.469,70.63 83.781,70.822C84.105,71.014 84.459,71.11 84.843,71.11M91.546,73L91.546,63.928L93.706,63.928L93.94,65.602C94.156,65.206 94.426,64.87 94.75,64.594C95.089,64.316 95.472,64.097 95.884,63.946C96.341,63.787 96.822,63.707 97.306,63.712L97.306,66.286L96.478,66.286C96.118,66.286 95.782,66.328 95.47,66.412C95.17,66.496 94.906,66.634 94.678,66.826C94.45,67.006 94.276,67.258 94.156,67.582C94.036,67.906 93.976,68.314 93.976,68.806L93.976,73L91.546,73ZM101.971,73.216C101.215,73.216 100.591,73.096 100.099,72.856C99.607,72.604 99.241,72.274 99.001,71.866C98.772,71.44 98.654,70.963 98.659,70.48C98.659,69.928 98.797,69.442 99.073,69.022C99.361,68.602 99.787,68.272 100.351,68.032C100.927,67.792 101.647,67.672 102.511,67.672L104.761,67.672C104.761,67.228 104.701,66.862 104.581,66.574C104.461,66.274 104.275,66.052 104.023,65.908C103.771,65.764 103.435,65.692 103.015,65.692C102.559,65.692 102.169,65.794 101.845,65.998C101.533,66.19 101.341,66.49 101.269,66.898L98.911,66.898C98.971,66.25 99.181,65.692 99.541,65.224C99.925,64.735 100.427,64.352 100.999,64.108C101.643,63.838 102.335,63.703 103.033,63.712C103.885,63.712 104.623,63.856 105.247,64.144C105.871,64.432 106.351,64.846 106.687,65.386C107.023,65.926 107.191,66.592 107.191,67.384L107.191,73L105.139,73L104.869,71.614C104.741,71.849 104.583,72.066 104.401,72.262C104.221,72.454 104.011,72.622 103.771,72.766C103.531,72.91 103.261,73.018 102.961,73.09C102.661,73.174 102.331,73.216 101.971,73.216M102.547,71.344C102.859,71.344 103.135,71.29 103.375,71.182C103.627,71.062 103.843,70.906 104.023,70.714C104.203,70.51 104.341,70.282 104.437,70.03C104.545,69.766 104.617,69.484 104.653,69.184L104.653,69.166L102.799,69.166C102.427,69.166 102.121,69.214 101.881,69.31C101.676,69.376 101.498,69.509 101.377,69.688C101.269,69.856 101.215,70.048 101.215,70.264C101.215,70.504 101.269,70.702 101.377,70.858C101.485,71.014 101.641,71.134 101.845,71.218C102.049,71.302 102.283,71.344 102.547,71.344" style="fill:white;fill-rule:nonzero;"/>
            <path d="M231.5,44L165.5,44C153.074,44 143,54.074 143,66.5C143,78.926 153.074,89 165.5,89L231.5,89C243.926,89 254,78.926 254,66.5C254,54.074 243.926,44 231.5,44" style="fill:rgb(51,51,51);fill-rule:nonzero;"/>
            <path d="M172.16,68.112L172.736,68.112L172.448,72L161.36,72L161.36,71.514C162.728,71.514 163.052,70.578 163.052,69.444L163.052,61.974C163.052,60.84 162.728,59.904 161.36,59.904L161.36,59.4L171.8,59.4L172.088,63.288L171.53,63.288C170.954,61.488 170.072,60.12 168.524,60.12L166.094,60.12L166.094,65.34L166.328,65.34C167.876,65.34 168.884,65.34 169.046,63.09L169.532,63.09L169.532,68.31L169.046,68.31C168.884,66.06 167.876,66.06 166.328,66.06L166.094,66.06L166.094,71.298L169.172,71.298C170.72,71.298 171.584,69.93 172.16,68.112M182.476,70.866C182.8,71.244 183.124,71.514 183.7,71.514L183.7,72L179.182,72L179.182,71.514C179.848,71.514 179.704,71.064 179.236,70.398L178.21,68.958L177.094,70.344C176.446,71.172 176.572,71.514 177.382,71.514L177.382,72L174.43,72L174.43,71.514C175.312,71.514 175.924,70.974 176.428,70.344L177.868,68.49L175.276,64.854C175.024,64.548 174.718,64.332 174.178,64.332L174.178,63.846L178.624,63.846L178.624,64.332C178.156,64.332 178.084,64.548 178.264,64.926L179.578,66.78L180.568,65.502C181.216,64.674 181.216,64.332 180.334,64.332L180.334,63.846L183.214,63.846L183.214,64.332C182.332,64.332 181.756,64.836 181.252,65.502L179.902,67.248L182.476,70.866ZM190.959,63.666C193.695,63.288 195.639,65.376 195.639,67.914C195.639,70.452 193.857,72.558 191.121,72.162C190.221,72.036 189.555,71.604 189.051,71.064L189.051,73.692C189.051,74.826 189.519,75.762 190.887,75.762L190.887,76.266L184.605,76.266L184.605,75.762C185.973,75.762 186.153,74.826 186.153,73.692L186.153,67.626C186.153,66.492 185.973,65.556 184.605,65.556L184.605,65.07C185.649,65.07 187.485,64.62 188.565,63.666L189.051,63.666L189.051,64.602C189.566,64.088 190.237,63.759 190.959,63.666M191.589,71.532C192.687,71.334 193.047,69.84 192.669,67.68C192.291,65.52 191.445,64.242 190.347,64.44C189.249,64.638 188.871,66.132 189.249,68.292C189.645,70.434 190.491,71.712 191.589,71.532M201.373,69.444C201.373,70.578 201.535,71.514 202.921,71.514L202.921,72L196.909,72L196.909,71.514C198.277,71.514 198.457,70.578 198.457,69.444L198.457,63.378C198.457,62.244 198.277,61.308 196.909,61.308L196.909,60.804C197.953,60.804 199.789,60.372 200.887,59.4L201.373,59.4L201.373,69.444ZM208.689,63.666C211.389,63.666 213.351,65.376 213.351,67.914C213.351,70.452 211.389,72.162 208.689,72.162C205.971,72.162 204.009,70.452 204.009,67.914C204.009,65.376 205.971,63.666 208.689,63.666M209.301,71.46C210.399,71.262 210.777,69.768 210.399,67.608C210.021,65.448 209.157,64.17 208.059,64.368C206.961,64.566 206.601,66.06 206.979,68.22C207.357,70.362 208.221,71.64 209.301,71.46M222.213,63.666C223.509,63.882 224.013,65.07 223.617,66.096C223.185,67.14 222.087,67.302 221.493,67.086C221.673,66.456 221.673,65.682 220.971,65.448C220.161,65.196 219.513,65.646 219.441,66.456L219.441,69.444C219.441,70.578 219.549,71.514 220.917,71.514L220.917,72L214.977,72L214.977,71.514C216.363,71.514 216.525,70.578 216.525,69.444L216.525,67.626C216.525,66.492 216.363,65.556 214.977,65.556L214.977,65.07C216.039,65.07 217.857,64.62 218.955,63.666L219.441,63.666L219.441,65.286C220.017,64.188 220.881,63.45 222.213,63.666M234.706,71.064C234.778,71.262 234.796,71.28 234.85,71.46C234.526,71.838 233.968,72.162 232.96,72.162C231.988,72.162 230.854,71.838 230.584,70.974C229.954,71.946 228.946,72.162 228.046,72.162C226.552,72.162 225.148,71.676 224.896,70.362C224.644,69.048 225.31,67.824 227.434,67.392C229.126,67.05 230.17,67.41 229.972,66.168C229.81,65.25 229.486,64.296 228.586,64.296C227.452,64.206 226.93,65.322 227.632,65.898C227.2,66.672 226.462,66.726 225.958,66.492C225.49,66.258 225.292,65.754 225.544,65.124C225.976,63.954 227.542,63.666 228.568,63.666C231.448,63.666 232.636,64.62 232.96,66.888C233.212,68.706 233.302,69.426 233.302,69.426C233.41,70.056 233.518,70.776 233.698,71.01C233.896,71.244 234.292,71.262 234.706,71.064M229.324,71.046C230.188,70.848 230.422,70.074 230.368,69.21C230.322,68.62 230.256,68.032 230.17,67.446C230.026,67.734 229.828,67.824 228.91,68.076C228.136,68.31 227.596,68.976 227.722,69.894C227.848,70.722 228.658,71.226 229.324,71.046" style="fill:white;fill-rule:nonzero;"/>
            <path d="M180,150L24,150L24,105L180,105L180,150ZM178,107L26,107L26,148L178,148L178,107Z" style="fill:rgb(51,51,51);"/>
            <path d="M42.504,132L42.504,131.892C43.764,131.892 44.034,131.496 44.034,130.128L44.034,122.748C44.034,121.38 43.764,120.984 42.504,120.984L42.504,120.876L52.206,120.876L52.458,124.512L52.386,124.53C51.918,122.46 50.748,121.002 48.012,121.002L46.716,121.002L46.716,126.384L47.202,126.384C49.254,126.384 50.154,125.286 50.478,123.774L50.568,123.774L50.568,129.102L50.478,129.102C50.154,127.59 49.254,126.51 47.202,126.51L46.716,126.51L46.716,131.874L48.138,131.874C51.036,131.874 52.026,129.966 52.566,128.094L52.656,128.112L52.314,132L42.504,132ZM58.788,132L58.788,131.892C59.796,131.892 60.732,131.334 61.65,130.488C62.352,129.84 63.09,128.976 63.846,127.968L64.566,127.032L62.298,123.522C61.47,122.244 60.57,120.984 59.328,120.984L59.328,120.876L65.826,120.876L65.826,120.984C64.404,120.984 64.53,122.082 65.124,123L66.636,125.34L67.122,124.692C67.986,123.54 68.4,122.694 68.4,122.064C68.4,121.398 67.932,120.984 67.05,120.984L67.05,120.876L72.306,120.876L72.306,120.984C71.316,120.984 70.434,121.452 69.498,122.28C68.778,122.91 68.022,123.774 67.212,124.836L66.708,125.466L69.264,129.408C70.038,130.632 71.1,131.892 72.288,131.892L72.288,132L65.808,132L65.808,131.892C66.996,131.892 67.176,131.028 66.438,129.894L64.656,127.176L63.972,128.058C63.162,129.192 62.784,130.02 62.784,130.65C62.784,131.442 63.378,131.892 64.314,131.892L64.314,132L58.788,132ZM78.317,132L78.317,131.892C79.577,131.892 79.847,131.496 79.847,130.128L79.847,122.748C79.847,121.38 79.577,120.984 78.317,120.984L78.317,120.876L84.221,120.876C87.713,120.876 89.009,122.352 89.009,124.134C89.009,125.898 87.713,127.338 84.221,127.338L83.267,127.338L83.267,127.212L83.645,127.212C85.589,127.212 86.147,125.592 86.147,124.134C86.147,122.658 85.589,121.002 83.645,121.002L82.529,121.002L82.529,130.128C82.529,131.496 82.799,131.892 84.059,131.892L84.059,132L78.317,132ZM95.537,132L95.537,131.892C96.797,131.892 97.067,131.496 97.067,130.128L97.067,122.748C97.067,121.38 96.797,120.984 95.537,120.984L95.537,120.876L101.55,120.876L101.55,120.984C100.29,120.984 99.75,121.344 99.75,122.892L99.75,131.874L100.866,131.874C103.566,131.874 104.88,130.11 105.348,128.04L105.42,128.058L105.15,132L95.537,132ZM118.482,132.216C114.9,132.216 112.272,129.804 112.272,126.438C112.272,123.072 114.9,120.66 118.482,120.66C122.046,120.66 124.692,123.072 124.692,126.438C124.692,129.804 122.046,132.216 118.482,132.216M118.482,132.072C121.092,132.072 121.794,129.282 121.794,126.438C121.794,123.594 121.092,120.804 118.482,120.804C115.854,120.804 115.152,123.63 115.152,126.438C115.152,129.264 115.872,132.072 118.482,132.072M131.492,132L131.492,131.892C132.752,131.892 133.022,131.496 133.022,130.128L133.022,122.748C133.022,121.38 132.752,120.984 131.492,120.984L131.492,120.876L137.45,120.876C140.888,120.876 142.418,122.028 142.418,123.81C142.418,126.15 139.826,126.546 137.774,126.636L137.774,126.708C141.896,126.744 141.392,127.788 142.202,130.326C142.562,131.46 142.886,131.892 143.966,131.892L143.966,132L140.024,132C139.754,131.55 139.574,130.92 139.34,130.02C138.728,127.446 138.728,126.726 136.802,126.726L135.704,126.726L135.704,130.128C135.704,131.496 135.974,131.892 137.234,131.892L137.234,132L131.492,132ZM135.704,126.6L137.054,126.6C138.962,126.6 139.664,125.232 139.664,123.81C139.664,122.352 138.944,121.002 136.946,121.002L135.704,121.002L135.704,126.6ZM148.912,132L148.912,131.892C150.82,131.892 151.522,129.966 152.332,128.13L155.518,120.786L155.644,120.786L159.784,129.534C160.306,130.668 161.008,131.892 162.16,131.892L162.16,132L155.806,132L155.806,131.892C157.12,131.892 157.39,130.884 156.814,129.588L156.238,128.328L152.44,128.328L152.314,128.652C151.684,130.362 151.81,131.892 153.862,131.892L153.862,132L148.912,132ZM152.53,128.148L156.148,128.148L154.294,124.062L152.53,128.148Z" style="fill:rgb(51,51,51);fill-rule:nonzero;"/>
            <path d="M249.5,166C261.926,166 272,176.074 272,188.5C272,200.926 261.926,211 249.5,211L187.5,211C175.074,211 165,200.926 165,188.5C165,176.074 175.074,166 187.5,166L249.5,166ZM249.5,168L187.5,168C176.178,168 167,177.178 167,188.5C167,199.822 176.178,209 187.5,209L249.5,209C260.822,209 270,199.822 270,188.5C270,177.178 260.822,168 249.5,168Z" style="fill:rgb(51,51,51);"/>
            <path d="M183.396,194L183.396,193.82L183.81,193.658C184.014,193.574 184.152,193.466 184.224,193.334C184.308,193.19 184.35,192.998 184.35,192.758L184.35,183.362C184.35,183.122 184.314,182.936 184.242,182.804C184.182,182.66 184.038,182.546 183.81,182.462L183.396,182.3L183.396,182.12L192.018,182.12L192.126,184.892L191.946,184.892L191.172,183.2C191.082,183.011 190.967,182.836 190.83,182.678C190.71,182.546 190.53,182.48 190.29,182.48L187.05,182.48L187.05,187.682L188.976,187.682C189.216,187.682 189.396,187.622 189.516,187.502C189.648,187.37 189.762,187.196 189.858,186.98L190.218,186.26L190.398,186.26L190.398,189.5L190.218,189.5L189.858,188.744C189.77,188.56 189.655,188.39 189.516,188.24C189.396,188.108 189.216,188.042 188.976,188.042L187.05,188.042L187.05,193.64L190.686,193.64C190.926,193.64 191.112,193.58 191.244,193.46C191.389,193.305 191.499,193.121 191.568,192.92L192.306,191.228L192.486,191.228L192.378,194L183.396,194ZM194.658,194L194.658,193.82L195.126,193.712C195.402,193.652 195.624,193.562 195.792,193.442C195.989,193.292 196.16,193.109 196.296,192.902L198.24,190.112L195.792,186.224C195.696,186.077 195.588,185.938 195.468,185.81C195.372,185.714 195.222,185.642 195.018,185.594L194.766,185.522L194.766,185.342L199.338,185.342L199.338,185.522L199.032,185.594C198.612,185.726 198.528,185.99 198.78,186.386L200.256,188.672L201.858,186.458C201.99,186.254 202.05,186.086 202.038,185.954C202.038,185.81 201.924,185.708 201.696,185.648L201.246,185.522L201.246,185.342L203.874,185.342L203.874,185.522L203.442,185.63C203.178,185.702 202.974,185.798 202.83,185.918C202.686,186.026 202.53,186.2 202.362,186.44L200.472,188.996L202.938,192.83C203.238,193.298 203.64,193.598 204.144,193.73L204.432,193.82L204.432,194L199.464,194L199.464,193.82L199.77,193.748C199.974,193.7 200.1,193.604 200.148,193.46C200.208,193.304 200.178,193.13 200.058,192.938L198.474,190.472L196.764,192.956C196.62,193.148 196.572,193.316 196.62,193.46C196.68,193.592 196.806,193.682 196.998,193.73L197.358,193.82L197.358,194L194.658,194ZM206.103,198.14L206.103,197.96L206.319,197.888C206.763,197.768 206.985,197.48 206.985,197.024L206.985,187.232C206.985,186.968 206.937,186.77 206.841,186.638C206.757,186.506 206.595,186.416 206.355,186.368L206.103,186.314L206.103,186.134L209.163,185.09L209.343,185.27L209.505,185.828C209.915,185.582 210.357,185.395 210.819,185.27C211.312,185.138 211.82,185.071 212.331,185.072C213.363,185.072 214.179,185.468 214.779,186.26C215.391,187.04 215.697,188.162 215.697,189.626C215.697,191.066 215.361,192.2 214.689,193.028C214.029,193.856 213.093,194.27 211.881,194.27C210.933,194.27 210.135,194.132 209.487,193.856L209.487,196.97C209.487,197.45 209.703,197.75 210.135,197.87L210.477,197.96L210.477,198.14L206.103,198.14ZM211.017,193.748C211.617,193.748 212.091,193.436 212.439,192.812C212.799,192.188 212.979,191.15 212.979,189.698C212.979,188.246 212.811,187.232 212.475,186.656C212.139,186.068 211.653,185.774 211.017,185.774C210.573,185.774 210.081,185.918 209.541,186.206L209.541,193.46C209.997,193.652 210.489,193.748 211.017,193.748M217.933,194L217.933,193.82L218.149,193.748C218.581,193.604 218.797,193.304 218.797,192.848L218.797,183.218C218.797,182.978 218.749,182.798 218.653,182.678C218.557,182.546 218.389,182.45 218.149,182.39L217.915,182.336L217.915,182.156L221.209,181.382L221.425,181.544L221.353,184.064L221.353,191.552C221.365,191.984 221.371,192.416 221.371,192.848C221.371,193.088 221.419,193.286 221.515,193.442C221.611,193.586 221.773,193.694 222.001,193.766L222.235,193.82L222.235,194L217.933,194ZM229.024,194.27C228.112,194.27 227.32,194.084 226.648,193.712C225.982,193.333 225.438,192.771 225.082,192.092C224.722,191.396 224.542,190.58 224.542,189.644C224.542,188.708 224.734,187.898 225.118,187.214C225.495,186.548 226.05,186 226.72,185.63C227.404,185.258 228.172,185.072 229.024,185.072C229.876,185.072 230.638,185.258 231.31,185.63C231.982,185.99 232.51,186.512 232.894,187.196C233.29,187.88 233.488,188.696 233.488,189.644C233.488,190.592 233.302,191.414 232.93,192.11C232.581,192.783 232.043,193.34 231.382,193.712C230.722,194.084 229.936,194.27 229.024,194.27M229.024,193.91C229.444,193.91 229.78,193.79 230.032,193.55C230.284,193.31 230.464,192.884 230.572,192.272C230.692,191.66 230.752,190.796 230.752,189.68C230.752,188.552 230.692,187.682 230.572,187.07C230.464,186.458 230.284,186.032 230.032,185.792C229.78,185.552 229.444,185.432 229.024,185.432C228.604,185.432 228.262,185.552 227.998,185.792C227.746,186.032 227.56,186.458 227.44,187.07C227.332,187.682 227.278,188.552 227.278,189.68C227.278,190.796 227.332,191.66 227.44,192.272C227.56,192.884 227.746,193.31 227.998,193.55C228.262,193.79 228.604,193.91 229.024,193.91M235.718,194L235.718,193.82L235.988,193.748C236.228,193.676 236.39,193.568 236.474,193.424C236.57,193.28 236.618,193.094 236.618,192.866L236.618,187.232C236.618,186.968 236.57,186.776 236.474,186.656C236.39,186.524 236.228,186.434 235.988,186.386L235.718,186.314L235.718,186.134L238.814,185.09L238.994,185.27L239.156,186.818L239.156,186.962C239.324,186.626 239.54,186.32 239.804,186.044C240.08,185.756 240.38,185.522 240.704,185.342C241.04,185.162 241.37,185.072 241.694,185.072C242.15,185.072 242.498,185.198 242.738,185.45C242.978,185.702 243.098,186.02 243.098,186.404C243.098,186.812 242.978,187.13 242.738,187.358C242.516,187.572 242.218,187.688 241.91,187.682C241.406,187.682 240.962,187.43 240.578,186.926L240.542,186.89C240.422,186.722 240.284,186.632 240.128,186.62C239.972,186.596 239.828,186.668 239.696,186.836C239.576,186.944 239.474,187.076 239.39,187.232C239.309,187.396 239.237,187.564 239.174,187.736L239.174,192.758C239.174,193.238 239.384,193.538 239.804,193.658L240.38,193.82L240.38,194L235.718,194ZM247.345,194.27C246.649,194.27 246.061,194.072 245.581,193.676C245.113,193.28 244.879,192.71 244.879,191.966C244.879,191.402 245.167,190.886 245.743,190.418C246.319,189.938 247.225,189.578 248.461,189.338C248.653,189.302 248.869,189.266 249.109,189.23C249.349,189.182 249.601,189.134 249.865,189.086L249.865,187.664C249.865,186.848 249.763,186.278 249.559,185.954C249.367,185.618 249.061,185.45 248.641,185.45C248.353,185.45 248.125,185.546 247.957,185.738C247.789,185.918 247.681,186.236 247.633,186.692L247.597,186.89C247.573,187.406 247.447,187.784 247.219,188.024C246.991,188.264 246.709,188.384 246.373,188.384C246.061,188.384 245.803,188.288 245.599,188.096C245.395,187.904 245.293,187.646 245.293,187.322C245.293,186.83 245.461,186.416 245.797,186.08C246.145,185.744 246.601,185.492 247.165,185.324C247.762,185.151 248.38,185.066 249.001,185.072C250.069,185.072 250.891,185.336 251.467,185.864C252.055,186.38 252.349,187.226 252.349,188.402L252.349,192.38C252.349,192.92 252.601,193.19 253.105,193.19L253.501,193.19L253.663,193.334C253.435,193.622 253.183,193.844 252.907,194C252.643,194.156 252.265,194.234 251.773,194.234C251.245,194.234 250.825,194.114 250.513,193.874C250.212,193.618 250.003,193.27 249.919,192.884C249.559,193.268 249.187,193.598 248.803,193.874C248.431,194.138 247.945,194.27 247.345,194.27M248.443,193.172C248.683,193.172 248.905,193.118 249.109,193.01C249.325,192.89 249.577,192.71 249.865,192.47L249.865,189.446L249.505,189.518C249.385,189.542 249.247,189.566 249.091,189.59C248.539,189.734 248.095,189.98 247.759,190.328C247.435,190.664 247.273,191.12 247.273,191.696C247.273,192.188 247.387,192.56 247.615,192.812C247.843,193.052 248.119,193.172 248.443,193.172M343.5,105.5L196.5,105.5L196.5,149.5L343.5,149.5L343.5,105.5Z" style="fill:rgb(51,51,51);fill-rule:nonzero;"/>
            <rect x="196.5" y="105.5" width="147" height="44" style="fill:none;fill-rule:nonzero;stroke:rgb(51,51,51);stroke-width:1px;"/>
            <path d="M214.72,134L214.72,120.77L219.166,120.77L219.166,122.768L216.664,122.768L216.664,126.332L218.464,126.332L218.464,128.276L216.664,128.276L216.664,132.002L219.166,132.002L219.166,134L214.72,134ZM225.919,134L228.061,127.052L225.955,120.77L227.863,120.77L228.925,124.118L228.979,124.37L229.051,124.37L229.105,124.118L230.167,120.77L232.075,120.77L229.969,127.052L232.111,134L230.203,134L229.087,130.058L229.051,129.806L228.979,129.806L228.943,130.058L227.827,134L225.919,134ZM238.861,134L238.861,120.77L240.805,120.77C241.543,120.77 242.158,120.932 242.65,121.256C243.148,121.58 243.52,122.039 243.766,122.633C244.012,123.227 244.135,123.926 244.135,124.73C244.135,125.534 244.006,126.227 243.748,126.809C243.512,127.366 243.117,127.841 242.614,128.177C242.122,128.501 241.519,128.678 240.805,128.708L240.805,134L238.861,134ZM240.805,126.728C241.147,126.728 241.417,126.662 241.615,126.53C241.813,126.392 241.954,126.176 242.038,125.882C242.128,125.588 242.173,125.21 242.173,124.748C242.173,124.28 242.128,123.899 242.038,123.605C241.954,123.311 241.81,123.095 241.606,122.957C241.408,122.819 241.141,122.75 240.805,122.75L240.805,126.728ZM250.949,134L250.949,120.77L252.893,120.77L252.893,132.2L255.467,132.2L255.467,134L250.949,134ZM264.52,134.144C263.98,134.144 263.515,134.018 263.125,133.766C262.739,133.513 262.431,133.158 262.234,132.74C262.025,132.283 261.921,131.785 261.928,131.282L261.928,123.488C261.928,122.942 262.03,122.456 262.234,122.03C262.444,121.598 262.741,121.256 263.125,121.004C263.515,120.752 263.98,120.626 264.52,120.626C265.06,120.626 265.522,120.752 265.906,121.004C266.296,121.256 266.593,121.598 266.797,122.03C267.007,122.462 267.112,122.948 267.112,123.488L267.112,131.282C267.112,131.822 267.007,132.308 266.797,132.74C266.604,133.16 266.294,133.516 265.906,133.766C265.522,134.018 265.06,134.144 264.52,134.144M264.52,132.254C264.76,132.254 264.928,132.155 265.024,131.957C265.12,131.753 265.168,131.528 265.168,131.282L265.168,123.488C265.168,123.242 265.117,123.02 265.015,122.822C264.928,122.629 264.732,122.507 264.52,122.516C264.309,122.51 264.114,122.631 264.025,122.822C263.923,123.02 263.872,123.242 263.872,123.488L263.872,131.282C263.872,131.528 263.923,131.753 264.025,131.957C264.115,132.147 264.311,132.264 264.52,132.254M274.229,134L274.229,120.77L276.173,120.77C277.337,120.77 278.195,121.094 278.747,121.742C279.299,122.384 279.575,123.332 279.575,124.586C279.575,125.33 279.443,125.975 279.179,126.521C278.921,127.061 278.606,127.457 278.234,127.709L279.557,134L277.613,134L276.515,128.42L276.173,128.42L276.173,134L274.229,134ZM276.173,126.62C276.533,126.62 276.818,126.542 277.028,126.386C277.238,126.224 277.388,125.996 277.478,125.702C277.568,125.408 277.613,125.06 277.613,124.658C277.613,124.028 277.508,123.545 277.298,123.209C277.094,122.867 276.719,122.696 276.173,122.696L276.173,126.62ZM286.018,134L288.016,120.77L290.392,120.77L292.39,134L290.5,134L290.14,131.3L288.268,131.3L287.908,134L286.018,134ZM288.538,129.248L289.87,129.248L289.312,124.802L289.258,124.1L289.15,124.1L289.096,124.802L288.538,129.248ZM320.581,127L321.721,127.813L320.581,128.627L313.581,133.627L312.419,132L316.88,128.813L306,128.813L306,126.813L316.88,126.813L312.419,123.627L313.581,122L320.581,127Z" style="fill:white;fill-rule:nonzero;"/>
            <g>
                <g transform="matrix(0.97957,0,0,0.974084,1.848891,4.761699)">
                    <path d="M143,166L38,166C34.708,166 32,168.708 32,172L32,205C32,208.292 34.708,211 38,211L143,211C146.292,211 149,208.292 149,205L149,172C149,168.708 146.292,166 143,166" style="fill:rgb(250,250,250);fill-rule:nonzero;"/>
                </g>
                <path d="M143,166C146.292,166 149,168.708 149,172L149,205C149,208.292 146.292,211 143,211L38,211C34.708,211 32,208.292 32,205L32,172C32,168.708 34.708,166 38,166L143,166ZM143,168L38,168C35.806,168 34,169.806 34,172L34,205C34,207.194 35.806,209 38,209L143,209C145.194,209 147,207.194 147,205L147,172C147,169.806 145.194,168 143,168Z" style="fill:rgb(51,51,51);"/>
                <path d="M60.08,199L51.08,199L51.08,177.58L59.99,177.58L59.99,181.54L55.31,181.54L55.31,185.626L59.63,185.626L59.63,189.586L55.31,189.586L55.31,195.04L60.08,195.04L60.08,199ZM65.387,183.34L66.863,187.066C66.887,187.138 66.917,187.216 66.953,187.3C66.989,187.372 67.013,187.444 67.025,187.516L67.043,187.732C67.055,187.732 67.061,187.738 67.061,187.75C67.061,187.762 67.079,187.852 67.115,188.02L67.115,188.272L67.403,188.272L67.403,188.02L67.457,187.768C67.481,187.612 67.517,187.45 67.565,187.282L67.637,187.066L69.095,183.34L73.325,183.34L69.581,191.17L73.325,199L69.095,199L67.529,195.238C67.505,195.154 67.481,195.106 67.457,195.094C67.421,194.988 67.391,194.88 67.367,194.77C67.342,194.694 67.324,194.615 67.313,194.536L67.277,194.284C67.264,194.243 67.258,194.201 67.259,194.158L67.259,194.05L66.971,194.05C66.971,194.158 66.965,194.242 66.953,194.302C66.953,194.362 66.947,194.44 66.935,194.536C66.913,194.625 66.895,194.715 66.881,194.806C66.861,194.922 66.831,195.037 66.791,195.148L66.755,195.256L65.387,199L61.067,199L64.811,191.17L61.067,183.34L65.387,183.34ZM74.683,183.34L78.733,183.34C78.733,183.412 78.721,183.508 78.697,183.628C78.685,183.736 78.649,183.868 78.589,184.024C78.529,184.192 78.481,184.33 78.445,184.438C78.388,184.589 78.315,184.734 78.229,184.87L78.121,185.086L78.013,185.266L78.229,185.446C79.225,183.922 80.527,183.16 82.135,183.16C83.047,183.16 83.767,183.4 84.295,183.88C84.835,184.372 85.189,185.092 85.357,186.04C85.393,186.28 85.423,186.538 85.447,186.814C85.471,187.078 85.483,187.36 85.483,187.66L85.483,194.626C85.483,195.214 85.435,195.766 85.339,196.282C85.255,196.786 85.117,197.212 84.925,197.56C84.733,197.92 84.505,198.22 84.241,198.46C83.955,198.701 83.625,198.884 83.269,199C82.855,199.125 82.424,199.186 81.991,199.18C81.451,199.18 80.977,199.114 80.569,198.982C80.337,198.918 80.108,198.84 79.885,198.748C79.682,198.65 79.484,198.542 79.291,198.424C79.091,198.319 78.904,198.193 78.733,198.046L78.733,204.4L74.683,204.4L74.683,183.34ZM78.553,188.668L78.553,193.672C78.553,194.068 78.631,194.404 78.787,194.68C78.835,194.776 78.919,194.884 79.039,195.004C79.171,195.112 79.321,195.19 79.489,195.238C79.633,195.286 79.801,195.31 79.993,195.31C80.161,195.31 80.323,195.292 80.479,195.256C80.771,195.167 81.02,194.975 81.181,194.716C81.265,194.596 81.331,194.434 81.379,194.23C81.415,194.038 81.433,193.852 81.433,193.672L81.433,188.668C81.433,188.272 81.355,187.93 81.199,187.642C81.127,187.531 81.036,187.433 80.929,187.354C80.814,187.237 80.672,187.151 80.515,187.102C80.345,187.053 80.17,187.028 79.993,187.03C79.825,187.03 79.663,187.054 79.507,187.102C79.352,187.136 79.21,187.211 79.093,187.318C78.976,187.411 78.873,187.52 78.787,187.642C78.701,187.785 78.646,187.944 78.625,188.11C78.578,188.292 78.554,188.48 78.553,188.668M91.161,199L87.111,199L87.111,177.4L91.161,177.4L91.161,199ZM100.434,199.18C99.565,199.187 98.701,199.047 97.879,198.766C97.116,198.493 96.4,198.105 95.755,197.614C95.108,197.134 94.532,196.564 94.045,195.922C93.565,195.274 93.187,194.518 92.911,193.654C92.643,192.835 92.509,191.978 92.515,191.116C92.515,190.252 92.647,189.418 92.911,188.614C93.166,187.828 93.542,187.087 94.027,186.418C94.515,185.749 95.104,185.16 95.773,184.672C96.773,183.953 97.924,183.472 99.139,183.268C99.559,183.196 99.991,183.16 100.434,183.16C101.286,183.16 102.114,183.298 102.918,183.574C103.702,183.833 104.442,184.21 105.114,184.69C105.75,185.17 106.314,185.746 106.806,186.418C107.31,187.078 107.694,187.81 107.958,188.614C108.078,189.01 108.174,189.418 108.246,189.838C108.318,190.258 108.354,190.684 108.354,191.116C108.354,191.836 108.24,192.61 108.012,193.438C107.796,194.266 107.4,195.082 106.824,195.886C106.345,196.557 105.762,197.146 105.096,197.632C104.437,198.117 103.709,198.499 102.936,198.766C102.537,198.9 102.127,199.002 101.712,199.072C101.29,199.144 100.862,199.18 100.434,199.18M100.452,195.31C100.848,195.31 101.244,195.244 101.64,195.112C102.048,194.98 102.408,194.782 102.72,194.518C103.116,194.206 103.422,193.87 103.638,193.51C103.866,193.138 104.022,192.796 104.106,192.484C104.166,192.28 104.214,192.07 104.25,191.854C104.286,191.628 104.304,191.399 104.304,191.17C104.304,190.702 104.238,190.264 104.106,189.856C103.98,189.449 103.798,189.061 103.566,188.704C103.344,188.396 103.084,188.118 102.792,187.876C102.459,187.589 102.074,187.369 101.658,187.228C101.269,187.097 100.862,187.03 100.452,187.03C99.589,187.03 98.827,187.288 98.167,187.804C97.84,188.058 97.555,188.362 97.321,188.704C97.071,189.047 96.883,189.431 96.763,189.838C96.703,190.042 96.655,190.258 96.619,190.486C96.583,190.712 96.565,190.941 96.565,191.17C96.565,191.542 96.619,191.938 96.727,192.358C96.835,192.778 97.033,193.198 97.321,193.618C97.549,193.954 97.819,194.248 98.131,194.5C98.443,194.752 98.809,194.95 99.229,195.094C99.625,195.238 100.033,195.31 100.452,195.31M109.699,183.34L113.749,183.34C113.749,183.472 113.737,183.592 113.713,183.7C113.677,183.834 113.634,183.966 113.587,184.096L113.479,184.42C113.461,184.465 113.437,184.508 113.407,184.546C113.345,184.662 113.291,184.783 113.245,184.906C113.187,185.034 113.115,185.155 113.029,185.266L113.245,185.446C113.437,185.158 113.623,184.906 113.803,184.69C113.995,184.474 114.235,184.264 114.523,184.06C115.003,183.724 115.579,183.508 116.251,183.412C116.609,183.36 116.97,183.336 117.331,183.34L118.033,183.34L117.853,187.21L116.719,187.21C115.771,187.21 115.045,187.36 114.541,187.66C114.013,187.984 113.749,188.428 113.749,188.992L113.749,199L109.699,199L109.699,183.34ZM118.548,194.932C118.541,194.352 118.626,193.775 118.8,193.222C118.965,192.699 119.234,192.216 119.592,191.8C119.952,191.38 120.396,191.026 120.924,190.738C121.464,190.438 122.1,190.18 122.832,189.964C123.204,189.856 123.6,189.766 124.02,189.694C124.44,189.61 124.884,189.538 125.352,189.478L125.352,188.29C125.352,188.17 125.328,188.038 125.28,187.894C125.256,187.766 125.207,187.643 125.136,187.534C125.067,187.442 124.989,187.357 124.902,187.282C124.805,187.19 124.688,187.123 124.56,187.084C124.431,187.05 124.298,187.031 124.164,187.03C124.056,187.03 123.924,187.048 123.768,187.084C123.643,187.11 123.525,187.165 123.426,187.246C123.232,187.394 123.092,187.604 123.03,187.84C122.986,187.967 122.961,188.101 122.958,188.236L122.958,188.65L118.998,188.65L118.998,187.588C118.998,187.06 119.07,186.556 119.214,186.076C119.37,185.596 119.592,185.176 119.88,184.816C120.468,184.108 121.314,183.616 122.418,183.34C122.682,183.28 122.964,183.238 123.264,183.214C123.576,183.178 123.894,183.16 124.218,183.16C125.862,183.16 127.14,183.55 128.052,184.33C128.952,185.11 129.402,186.196 129.402,187.588L129.402,199L125.352,199C125.352,198.892 125.364,198.766 125.388,198.622C125.412,198.466 125.442,198.334 125.478,198.226C125.526,198.094 125.574,197.968 125.622,197.848C125.682,197.716 125.748,197.578 125.82,197.434C125.88,197.326 125.964,197.206 126.072,197.074L125.856,196.894C125.664,197.23 125.466,197.512 125.262,197.74C125.07,197.956 124.859,198.155 124.632,198.334C124.416,198.514 124.176,198.67 123.912,198.802C123.66,198.922 123.372,199.012 123.048,199.072C122.9,199.107 122.75,199.131 122.598,199.144C122.449,199.167 122.299,199.179 122.148,199.18C121.752,199.18 121.362,199.12 120.978,199C120.589,198.882 120.227,198.686 119.916,198.424C119.607,198.184 119.35,197.884 119.16,197.542C118.956,197.169 118.804,196.769 118.71,196.354C118.648,196.13 118.606,195.901 118.584,195.67C118.559,195.425 118.547,195.178 118.548,194.932M122.688,194.32C122.688,194.5 122.706,194.668 122.742,194.824C122.79,194.968 122.844,195.076 122.904,195.148C123.06,195.388 123.27,195.538 123.534,195.598C123.678,195.646 123.816,195.67 123.948,195.67C124.356,195.67 124.824,195.52 125.352,195.22L125.352,191.89C124.992,192.01 124.668,192.13 124.38,192.25C124.092,192.37 123.84,192.514 123.624,192.682C123.432,192.826 123.258,192.982 123.102,193.15C122.961,193.312 122.857,193.502 122.796,193.708C122.724,193.924 122.688,194.128 122.688,194.32" style="fill:rgb(51,51,51);fill-rule:nonzero;"/>
            </g>
        </g>
    </g>
</svg>
